<svg xmlns="http://www.w3.org/2000/svg" xmlns:xlink="http://www.w3.org/1999/xlink" width="500" zoomAndPan="magnify" viewBox="0 0 375 374.999991" height="500" preserveAspectRatio="xMidYMid meet" version="1.0"><defs><g/><clipPath id="3dbe71a0b0"><path d="M 0 229.339844 L 235.125 229.339844 L 235.125 259.917969 L 0 259.917969 Z M 0 229.339844 " clip-rule="nonzero"/></clipPath></defs><path stroke-linecap="butt" transform="matrix(0.924, 0, 0, 0.924, -80.836843, 14.323944)" fill-opacity="1" fill="#1d1d1b" fill-rule="nonzero" stroke-linejoin="miter" d="M 100.189551 238.150515 C 106.518184 238.150515 110.779549 241.841161 110.779549 248.250117 C 110.779549 254.659073 106.471681 258.358174 100.189551 258.358174 L 93.239468 258.358174 L 93.239468 238.150515 Z M 95.230641 256.548785 L 100.109227 256.548785 C 105.101957 256.548785 108.788376 253.530319 108.788376 248.250117 C 108.788376 242.969915 105.258376 239.951449 100.109227 239.951449 L 95.230641 239.951449 Z M 95.230641 256.548785 " stroke="#1d1d1b" stroke-width="1.23" stroke-opacity="1" stroke-miterlimit="10"/><path stroke-linecap="butt" transform="matrix(0.924, 0, 0, 0.924, -80.836843, 14.323944)" fill-opacity="1" fill="#1d1d1b" fill-rule="nonzero" stroke-linejoin="miter" d="M 137.518766 243.020645 C 136.360419 240.919556 134.179006 239.600563 131.080216 239.600563 C 127.279654 239.600563 125.639367 241.190119 125.639367 243.350394 C 125.639367 245.641722 127.359977 246.8508 131.409965 247.121363 C 137.2017 247.518752 139.628311 249.569111 139.628311 252.968056 C 139.628311 256.371228 136.639437 258.70906 131.680528 258.70906 C 127.419163 258.70906 124.299235 257.009587 122.650493 253.779744 L 124.400696 252.951145 C 125.859199 255.55954 128.391498 256.908126 131.650935 256.908126 C 135.371174 256.908126 137.628682 255.428486 137.628682 253.061062 C 137.628682 250.68941 135.958802 249.391554 131.219725 249.049123 C 125.90993 248.668644 123.648194 246.762022 123.648194 243.358849 C 123.648194 240.179736 126.100169 237.808084 131.059079 237.808084 C 135.020287 237.808084 137.878107 239.528694 139.311245 242.200502 L 137.531449 243.0291 Z M 137.518766 243.020645 " stroke="#1d1d1b" stroke-width="1.23" stroke-opacity="1" stroke-miterlimit="10"/><path stroke-linecap="butt" transform="matrix(0.924, 0, 0, 0.924, -80.836843, 14.323944)" fill-opacity="1" fill="#1d1d1b" fill-rule="nonzero" stroke-linejoin="miter" d="M 160.998547 238.150515 C 166.042007 238.150515 168.811048 240.928011 168.811048 244.969543 C 168.811048 249.011075 165.978594 251.758978 160.998547 251.758978 L 155.181446 251.758978 L 155.181446 258.358174 L 153.190273 258.358174 L 153.190273 238.150515 Z M 155.181446 249.979182 L 160.888631 249.979182 C 164.718786 249.979182 166.819875 248.08947 166.819875 244.969543 C 166.819875 241.849616 164.748378 239.959904 160.888631 239.959904 L 155.181446 239.959904 Z M 155.181446 249.979182 " stroke="#1d1d1b" stroke-width="1.23" stroke-opacity="1" stroke-miterlimit="10"/><path stroke-linecap="butt" transform="matrix(0.924, 0, 0, 0.924, -80.836843, 14.323944)" fill-opacity="1" fill="#1d1d1b" fill-rule="nonzero" stroke-linejoin="miter" d="M 198.061427 244.001435 C 196.818529 241.388814 194.290458 239.609018 190.870374 239.609018 C 185.801549 239.609018 182.681621 243.358849 182.681621 248.258572 C 182.681621 253.158295 185.860734 256.941947 190.870374 256.941947 C 194.26932 256.941947 196.928445 255.157923 198.171343 252.519936 L 199.980732 253.302032 C 198.441906 256.607971 195.321978 258.721743 190.870374 258.721743 C 184.74889 258.721743 180.681993 254.460379 180.681993 248.258572 C 180.681993 242.060993 184.778483 237.799629 190.870374 237.799629 C 195.258565 237.799629 198.310852 239.930311 199.870816 243.21934 Z M 198.061427 244.001435 " stroke="#1d1d1b" stroke-width="1.23" stroke-opacity="1" stroke-miterlimit="10"/><path stroke-linecap="butt" transform="matrix(0.924, 0, 0, 0.924, -80.836843, 14.323944)" fill-opacity="1" fill="#1d1d1b" fill-rule="nonzero" stroke-linejoin="miter" d="M 214.320562 244.880765 L 214.320562 247.658261 C 215.237939 245.861555 216.878226 244.69898 219.309064 244.69898 L 220.150346 244.69898 L 220.150346 246.478776 L 219.309064 246.478776 C 216.129951 246.478776 214.430478 248.909614 214.430478 251.598331 L 214.430478 258.358174 L 212.519628 258.358174 L 212.519628 244.88922 L 214.329017 244.88922 Z M 214.320562 244.880765 " stroke="#1d1d1b" stroke-width="1.23" stroke-opacity="1" stroke-miterlimit="10"/><path stroke-linecap="butt" transform="matrix(0.924, 0, 0, 0.924, -80.836843, 14.323944)" fill-opacity="1" fill="#1d1d1b" fill-rule="nonzero" stroke-linejoin="miter" d="M 231.488619 248.550272 C 232.190392 246.208213 234.291481 244.618657 237.550918 244.618657 C 241.571312 244.618657 243.241192 246.639423 243.241192 249.340823 L 243.241192 255.11142 C 243.241192 256.350091 243.811911 256.832031 244.670102 256.832031 L 245.418377 256.832031 L 245.498701 258.370856 C 245.101312 258.50191 244.560186 258.590689 244.040198 258.590689 C 242.691611 258.590689 241.829192 257.72827 241.748869 255.999204 C 240.429875 257.719815 238.489432 258.641419 235.821852 258.641419 C 232.638511 258.641419 230.968631 257.098366 230.968631 254.790127 C 230.968631 252.481888 232.558188 250.778188 237.009792 250.609086 C 239.947935 250.49917 241.288067 249.941134 241.288067 248.799698 C 241.288067 247.510297 240.239636 246.35195 237.572055 246.35195 C 235.251134 246.35195 233.927912 247.320057 233.4502 248.748967 L 231.480164 248.558728 Z M 241.397983 251.048751 C 240.590522 251.780116 239.110881 252.147912 236.899876 252.240918 C 233.750355 252.350834 232.879481 253.399265 232.879481 254.752079 C 232.879481 255.990749 233.881409 256.929264 236.138918 256.929264 C 239.449085 256.929264 241.389528 255.179061 241.389528 252.85814 L 241.389528 251.048751 Z M 241.397983 251.048751 " stroke="#1d1d1b" stroke-width="1.23" stroke-opacity="1" stroke-miterlimit="10"/><path stroke-linecap="butt" transform="matrix(0.924, 0, 0, 0.924, -80.836843, 14.323944)" fill-opacity="1" fill="#1d1d1b" fill-rule="nonzero" stroke-linejoin="miter" d="M 258.232064 244.880765 L 258.232064 243.071376 C 258.232064 239.938766 259.868124 237.871497 263.300889 237.871497 L 263.968841 237.871497 L 263.968841 239.651293 L 263.300889 239.651293 C 261.229393 239.651293 260.151369 240.839233 260.151369 243.071376 L 260.151369 244.880765 L 263.901201 244.880765 L 263.901201 246.630968 L 260.151369 246.630968 L 260.151369 258.349719 L 258.240519 258.349719 L 258.240519 246.630968 L 255.758951 246.630968 L 255.758951 244.880765 L 258.240519 244.880765 Z M 258.232064 244.880765 " stroke="#1d1d1b" stroke-width="1.23" stroke-opacity="1" stroke-miterlimit="10"/><path stroke-linecap="butt" transform="matrix(0.924, 0, 0, 0.924, -80.836843, 14.323944)" fill-opacity="1" fill="#1d1d1b" fill-rule="nonzero" stroke-linejoin="miter" d="M 275.641091 244.880765 C 276.930492 244.880765 277.628037 244.208585 277.628037 242.830406 L 277.628037 241.321173 L 279.441653 241.321173 L 279.441653 244.880765 L 283.288719 244.880765 L 283.288719 246.630968 L 279.441653 246.630968 L 279.441653 254.168678 C 279.441653 255.999204 280.329438 256.840486 281.809078 256.840486 C 282.400934 256.840486 283.001246 256.789755 283.529689 256.679839 L 283.690335 258.349719 C 283.018156 258.510365 282.231833 258.620282 281.428599 258.620282 C 278.820204 258.620282 277.518121 257.060318 277.518121 254.232091 L 277.518121 246.630968 L 274.79981 246.630968 L 274.79981 244.880765 Z M 275.641091 244.880765 " stroke="#1d1d1b" stroke-width="1.23" stroke-opacity="1" stroke-miterlimit="10"/><path fill="#a5c6db" d="M 92.414062 221.625 L 141.78125 193.128906 L 141.78125 136.117188 L 92.414062 164.621094 Z M 92.414062 221.625 " fill-opacity="1" fill-rule="nonzero"/><path fill="#4c7085" d="M 101.394531 206.082031 L 132.808594 187.945312 L 132.808594 151.667969 L 101.386719 169.804688 Z M 101.394531 206.082031 " fill-opacity="1" fill-rule="nonzero"/><path fill="#4c7085" d="M 95.304688 168.132812 C 95.304688 169.148438 96.015625 169.566406 96.902344 169.058594 C 97.789062 168.546875 98.503906 167.3125 98.503906 166.292969 C 98.503906 165.277344 97.789062 164.863281 96.902344 165.371094 C 96.015625 165.878906 95.304688 167.117188 95.304688 168.132812 Z M 95.304688 168.132812 " fill-opacity="1" fill-rule="nonzero"/><path fill="#4c7085" d="M 135.703125 144.8125 C 135.703125 145.828125 136.414062 146.242188 137.300781 145.734375 C 138.1875 145.226562 138.898438 143.988281 138.898438 142.972656 C 138.898438 141.957031 138.1875 141.539062 137.300781 142.046875 C 136.414062 142.558594 135.703125 143.792969 135.703125 144.8125 Z M 135.703125 144.8125 " fill-opacity="1" fill-rule="nonzero"/><path fill="#4c7085" d="M 135.703125 191.453125 C 135.703125 192.472656 136.414062 192.886719 137.300781 192.378906 C 138.1875 191.871094 138.898438 190.632812 138.898438 189.617188 C 138.898438 188.597656 138.1875 188.183594 137.300781 188.691406 C 136.414062 189.199219 135.703125 190.4375 135.703125 191.453125 Z M 135.703125 191.453125 " fill-opacity="1" fill-rule="nonzero"/><path fill="#4c7085" d="M 95.304688 214.777344 C 95.304688 215.792969 96.015625 216.207031 96.902344 215.699219 C 97.789062 215.191406 98.503906 213.953125 98.503906 212.9375 C 98.503906 211.921875 97.789062 211.503906 96.902344 212.015625 C 96.015625 212.523438 95.304688 213.761719 95.304688 214.777344 Z M 95.304688 214.777344 " fill-opacity="1" fill-rule="nonzero"/><path fill="#6297b5" d="M 54.011719 142.445312 L 54.011719 145.613281 C 54.011719 147.363281 52.78125 148.074219 51.265625 147.195312 L 48.699219 145.714844 C 47.183594 144.839844 45.953125 145.550781 45.953125 147.296875 C 45.953125 149.042969 47.183594 151.167969 48.699219 152.046875 L 58.605469 157.765625 C 60.121094 158.644531 61.347656 160.769531 61.347656 162.515625 C 61.347656 164.261719 60.121094 164.972656 58.605469 164.09375 L 40.640625 153.726562 C 39.125 152.851562 37.898438 153.5625 37.898438 155.308594 C 37.898438 157.054688 39.125 159.179688 40.640625 160.058594 L 75.863281 180.394531 C 77.378906 181.273438 78.609375 183.398438 78.609375 185.144531 C 78.609375 186.890625 77.378906 187.601562 75.863281 186.722656 L 31.910156 161.351562 C 30.394531 160.472656 29.164062 161.183594 29.164062 162.929688 C 29.164062 164.675781 30.394531 166.800781 31.910156 167.679688 L 63.84375 186.113281 C 65.359375 186.992188 66.585938 189.117188 66.585938 190.863281 C 66.585938 192.609375 65.359375 193.320312 63.84375 192.445312 L 46.214844 182.269531 C 44.699219 181.390625 43.46875 182.105469 43.46875 183.851562 C 43.46875 185.597656 44.699219 187.722656 46.214844 188.601562 L 51.25 191.511719 C 52.765625 192.386719 53.992188 194.511719 53.992188 196.257812 L 53.992188 199.429688 C 53.992188 199.429688 92.394531 221.59375 92.394531 221.59375 L 92.394531 164.585938 C 92.394531 164.585938 53.992188 142.417969 53.992188 142.417969 Z M 54.011719 142.445312 " fill-opacity="1" fill-rule="nonzero"/><path fill="#89b9d3" d="M 103.382812 113.941406 L 100.636719 115.519531 C 99.121094 116.398438 96.664062 116.398438 95.148438 115.519531 L 92.578125 114.042969 C 91.0625 113.164062 88.605469 113.164062 87.089844 114.042969 C 85.574219 114.917969 85.574219 116.332031 87.089844 117.210938 L 96.996094 122.929688 C 98.511719 123.808594 98.511719 125.222656 96.996094 126.101562 C 95.480469 126.976562 93.023438 126.976562 91.507812 126.101562 L 73.546875 115.734375 C 72.03125 114.855469 69.570312 114.855469 68.054688 115.734375 C 66.542969 116.609375 66.542969 118.023438 68.054688 118.902344 L 103.28125 139.238281 C 104.792969 140.117188 104.792969 141.53125 103.28125 142.410156 C 101.765625 143.285156 99.304688 143.285156 97.789062 142.410156 L 53.84375 117.035156 C 52.328125 116.15625 49.871094 116.15625 48.355469 117.035156 C 46.839844 117.914062 46.839844 119.328125 48.355469 120.207031 L 80.289062 138.648438 C 81.804688 139.527344 81.804688 140.941406 80.289062 141.816406 C 78.773438 142.695312 76.316406 142.695312 74.800781 141.816406 L 57.179688 131.644531 C 55.664062 130.765625 53.207031 130.765625 51.691406 131.644531 C 50.175781 132.523438 50.175781 133.9375 51.691406 134.8125 L 56.726562 137.722656 C 58.242188 138.601562 58.242188 140.015625 56.726562 140.894531 L 53.984375 142.472656 L 92.386719 164.648438 L 141.753906 136.144531 L 103.351562 113.96875 Z M 103.382812 113.941406 " fill-opacity="1" fill-rule="nonzero"/><path fill="#ffffff" d="M 132.820312 170.988281 L 130.816406 172.105469 C 130.816406 172.105469 130.175781 172.578125 129.167969 171.460938 L 128.171875 170.339844 C 128.171875 170.339844 127.480469 169.527344 127.246094 171.097656 C 127.015625 172.667969 126.8125 174.140625 126.8125 174.140625 C 126.8125 174.140625 126.8125 174.417969 126.507812 174.5625 C 126.203125 174.710938 125.261719 175.277344 125.261719 175.277344 C 125.261719 175.277344 124.253906 175.773438 123.523438 173.972656 C 122.792969 172.171875 122.339844 170.007812 122.339844 170.007812 C 122.339844 170.007812 122.25 169.316406 121.796875 169.527344 C 121.34375 169.742188 121.234375 170.738281 121.234375 170.738281 L 119.996094 177.984375 C 119.996094 177.984375 119.976562 178.222656 119.820312 178.332031 C 119.660156 178.445312 117.777344 179.507812 117.777344 179.507812 C 117.777344 179.507812 117.425781 179.773438 117.289062 178.878906 C 117.148438 177.984375 116.964844 175.46875 116.964844 175.46875 C 116.964844 175.46875 116.863281 174.386719 116.328125 174.65625 C 115.789062 174.925781 115.613281 176.125 115.613281 176.125 L 115.171875 179.804688 C 115.171875 179.804688 115.023438 181.078125 114.578125 181.328125 C 114.136719 181.578125 112.539062 182.464844 112.539062 182.464844 C 112.539062 182.464844 112.4375 182.554688 112.390625 182.121094 C 112.34375 181.6875 111.492188 175.15625 111.492188 175.15625 C 111.492188 175.15625 111.402344 173.695312 110.792969 174.140625 C 110.179688 174.582031 109.996094 175.347656 109.996094 175.347656 L 109.007812 179.359375 C 109.007812 179.359375 108 183.414062 106.679688 185.300781 C 106.679688 185.300781 106.457031 185.714844 106.246094 185.21875 C 106.03125 184.71875 105.71875 183.953125 105.71875 183.953125 C 105.71875 183.953125 105.128906 182.789062 104.257812 184.507812 C 103.382812 186.226562 102.957031 186.992188 102.957031 186.992188 C 102.957031 186.992188 102.1875 188.339844 101.421875 188.785156 L 104.359375 187.242188 C 104.359375 187.242188 105.203125 186.984375 105.699219 187.261719 C 106.199219 187.535156 107.316406 187.59375 107.316406 187.59375 C 107.316406 187.59375 107.777344 187.609375 107.917969 186.722656 L 108.167969 185.21875 C 108.167969 185.21875 108.148438 185.070312 108.445312 184.902344 C 108.738281 184.738281 110.746094 183.601562 110.746094 183.601562 C 110.746094 183.601562 111.808594 182.992188 112.453125 185.328125 C 113.101562 187.667969 113.183594 188.597656 113.183594 188.597656 C 113.183594 188.597656 113.25 190.085938 113.703125 189.828125 C 114.15625 189.570312 114.238281 188.191406 114.238281 188.191406 L 115.023438 181.492188 C 115.023438 181.492188 115.03125 181.132812 115.21875 181.042969 C 115.402344 180.949219 117.113281 179.96875 117.113281 179.96875 C 117.113281 179.96875 117.324219 179.765625 117.351562 180.171875 C 117.378906 180.578125 117.738281 184.710938 117.738281 184.710938 C 117.738281 184.710938 117.804688 185.875 118.351562 185.511719 C 118.894531 185.152344 119.117188 183.433594 119.117188 183.433594 C 119.117188 183.433594 119.523438 180.589844 120.289062 178.84375 C 120.289062 178.84375 120.613281 177.984375 121.214844 177.640625 C 121.816406 177.300781 123.644531 176.265625 123.644531 176.265625 C 123.644531 176.265625 123.71875 176.152344 123.78125 176.449219 C 123.847656 176.746094 124.855469 181.058594 124.855469 181.058594 C 124.855469 181.058594 124.992188 181.964844 125.484375 181.539062 C 125.972656 181.113281 126.257812 179.3125 126.257812 179.3125 C 126.257812 179.3125 127.164062 174.242188 128.753906 173.355469 C 128.753906 173.355469 128.921875 173.207031 129.078125 173.777344 C 129.234375 174.351562 129.464844 175.117188 129.84375 175.015625 C 130.222656 174.914062 130.480469 174.398438 130.480469 174.398438 C 130.480469 174.398438 131.988281 171.441406 132.828125 170.980469 Z M 132.820312 170.988281 " fill-opacity="1" fill-rule="nonzero"/><g clip-path="url(#3dbe71a0b0)"><path fill="#ffffff" d="M -7.796875 229.339844 L 235.167969 229.339844 L 235.167969 259.917969 L -7.796875 259.917969 Z M -7.796875 229.339844 " fill-opacity="1" fill-rule="nonzero"/></g><g fill="#082f64" fill-opacity="1"><g transform="translate(164.706087, 171.156318)"><g><path d="M 1.203125 0 L 1.203125 -10.5 L 15.84375 -10.5 C 16.425781 -10.5 16.945312 -10.363281 17.40625 -10.09375 C 17.875 -9.832031 18.238281 -9.472656 18.5 -9.015625 C 18.769531 -8.554688 18.90625 -8.03125 18.90625 -7.4375 L 18.90625 -3.0625 C 18.90625 -2.46875 18.769531 -1.941406 18.5 -1.484375 C 18.238281 -1.023438 17.875 -0.660156 17.40625 -0.390625 C 16.945312 -0.128906 16.425781 0 15.84375 0 Z M 2.9375 -1.734375 L 15.84375 -1.734375 C 16.21875 -1.734375 16.53125 -1.859375 16.78125 -2.109375 C 17.03125 -2.367188 17.15625 -2.6875 17.15625 -3.0625 L 17.15625 -7.4375 C 17.15625 -7.820312 17.03125 -8.140625 16.78125 -8.390625 C 16.53125 -8.640625 16.21875 -8.765625 15.84375 -8.765625 L 2.9375 -8.765625 Z M 2.9375 -1.734375 "/></g></g></g><g fill="#082f64" fill-opacity="1"><g transform="translate(184.506064, 171.156318)"><g><path d="M 15.84375 -6.125 C 16.425781 -6.125 16.945312 -5.988281 17.40625 -5.71875 C 17.875 -5.457031 18.238281 -5.09375 18.5 -4.625 C 18.769531 -4.164062 18.90625 -3.644531 18.90625 -3.0625 C 18.90625 -2.46875 18.769531 -1.941406 18.5 -1.484375 C 18.238281 -1.023438 17.875 -0.660156 17.40625 -0.390625 C 16.945312 -0.128906 16.425781 0 15.84375 0 L 1.65625 0 L 1.65625 -1.734375 L 15.84375 -1.734375 C 16.21875 -1.734375 16.53125 -1.859375 16.78125 -2.109375 C 17.03125 -2.367188 17.15625 -2.6875 17.15625 -3.0625 C 17.15625 -3.4375 17.03125 -3.75 16.78125 -4 C 16.53125 -4.25 16.21875 -4.375 15.84375 -4.375 L 4.265625 -4.375 C 3.671875 -4.375 3.144531 -4.503906 2.6875 -4.765625 C 2.226562 -5.035156 1.863281 -5.398438 1.59375 -5.859375 C 1.332031 -6.328125 1.203125 -6.851562 1.203125 -7.4375 C 1.203125 -8.03125 1.332031 -8.554688 1.59375 -9.015625 C 1.863281 -9.472656 2.226562 -9.832031 2.6875 -10.09375 C 3.144531 -10.363281 3.671875 -10.5 4.265625 -10.5 L 18.453125 -10.5 L 18.453125 -8.765625 L 4.265625 -8.765625 C 3.890625 -8.765625 3.570312 -8.640625 3.3125 -8.390625 C 3.0625 -8.140625 2.9375 -7.820312 2.9375 -7.4375 C 2.9375 -7.070312 3.0625 -6.757812 3.3125 -6.5 C 3.570312 -6.25 3.890625 -6.125 4.265625 -6.125 Z M 15.84375 -6.125 "/></g></g></g><g fill="#082f64" fill-opacity="1"><g transform="translate(204.306041, 171.156318)"><g><path d="M 1.203125 0 L 1.203125 -10.5 L 15.84375 -10.5 C 16.425781 -10.5 16.945312 -10.363281 17.40625 -10.09375 C 17.875 -9.832031 18.238281 -9.472656 18.5 -9.015625 C 18.769531 -8.554688 18.90625 -8.03125 18.90625 -7.4375 C 18.90625 -6.851562 18.769531 -6.328125 18.5 -5.859375 C 18.238281 -5.398438 17.875 -5.035156 17.40625 -4.765625 C 16.945312 -4.503906 16.425781 -4.375 15.84375 -4.375 L 2.9375 -4.375 L 2.9375 0 Z M 2.9375 -6.125 L 15.84375 -6.125 C 16.21875 -6.125 16.53125 -6.25 16.78125 -6.5 C 17.03125 -6.757812 17.15625 -7.070312 17.15625 -7.4375 C 17.15625 -7.820312 17.03125 -8.140625 16.78125 -8.390625 C 16.53125 -8.640625 16.21875 -8.765625 15.84375 -8.765625 L 2.9375 -8.765625 Z M 2.9375 -6.125 "/></g></g></g><g fill="#446694" fill-opacity="1"><g transform="translate(224.108427, 171.156318)"><g><path d="M 2.9375 -3.0625 C 2.9375 -2.6875 3.0625 -2.367188 3.3125 -2.109375 C 3.570312 -1.859375 3.890625 -1.734375 4.265625 -1.734375 L 18.90625 -1.734375 L 18.90625 0 L 4.265625 0 C 3.671875 0 3.144531 -0.128906 2.6875 -0.390625 C 2.226562 -0.660156 1.863281 -1.023438 1.59375 -1.484375 C 1.332031 -1.941406 1.203125 -2.46875 1.203125 -3.0625 L 1.203125 -7.4375 C 1.203125 -8.03125 1.332031 -8.554688 1.59375 -9.015625 C 1.863281 -9.472656 2.226562 -9.832031 2.6875 -10.09375 C 3.144531 -10.363281 3.671875 -10.5 4.265625 -10.5 L 18.90625 -10.5 L 18.90625 -8.765625 L 4.265625 -8.765625 C 3.890625 -8.765625 3.570312 -8.640625 3.3125 -8.390625 C 3.0625 -8.140625 2.9375 -7.820312 2.9375 -7.4375 Z M 2.9375 -3.0625 "/></g></g></g><g fill="#446694" fill-opacity="1"><g transform="translate(243.908404, 171.156318)"><g><path d="M 1.203125 0 L 1.203125 -10.5 L 15.84375 -10.5 C 16.425781 -10.5 16.945312 -10.363281 17.40625 -10.09375 C 17.875 -9.832031 18.238281 -9.472656 18.5 -9.015625 C 18.769531 -8.554688 18.90625 -8.03125 18.90625 -7.4375 C 18.90625 -6.832031 18.757812 -6.289062 18.46875 -5.8125 C 18.1875 -5.332031 17.804688 -4.96875 17.328125 -4.71875 C 17.828125 -4.257812 18.210938 -3.703125 18.484375 -3.046875 C 18.765625 -2.390625 18.90625 -1.664062 18.90625 -0.875 L 18.90625 0 L 17.15625 0 L 17.15625 -0.875 C 17.15625 -1.550781 17.003906 -2.148438 16.703125 -2.671875 C 16.398438 -3.203125 15.984375 -3.617188 15.453125 -3.921875 C 14.929688 -4.222656 14.332031 -4.375 13.65625 -4.375 L 2.9375 -4.375 L 2.9375 0 Z M 2.9375 -6.125 L 15.84375 -6.125 C 16.21875 -6.125 16.53125 -6.25 16.78125 -6.5 C 17.03125 -6.757812 17.15625 -7.070312 17.15625 -7.4375 C 17.15625 -7.820312 17.03125 -8.140625 16.78125 -8.390625 C 16.53125 -8.640625 16.21875 -8.765625 15.84375 -8.765625 L 2.9375 -8.765625 Z M 2.9375 -6.125 "/></g></g></g><g fill="#446694" fill-opacity="1"><g transform="translate(263.708381, 171.156318)"><g><path d="M 17.15625 -7.4375 C 17.15625 -7.820312 17.03125 -8.140625 16.78125 -8.390625 C 16.53125 -8.640625 16.21875 -8.765625 15.84375 -8.765625 L 4.265625 -8.765625 C 3.890625 -8.765625 3.570312 -8.640625 3.3125 -8.390625 C 3.0625 -8.140625 2.9375 -7.820312 2.9375 -7.4375 L 2.9375 -6.125 L 17.15625 -6.125 Z M 1.203125 0 L 1.203125 -7.4375 C 1.203125 -8.03125 1.332031 -8.554688 1.59375 -9.015625 C 1.863281 -9.472656 2.226562 -9.832031 2.6875 -10.09375 C 3.144531 -10.363281 3.671875 -10.5 4.265625 -10.5 L 15.84375 -10.5 C 16.425781 -10.5 16.945312 -10.363281 17.40625 -10.09375 C 17.875 -9.832031 18.238281 -9.472656 18.5 -9.015625 C 18.769531 -8.554688 18.90625 -8.03125 18.90625 -7.4375 L 18.90625 0 L 17.15625 0 L 17.15625 -4.375 L 2.9375 -4.375 L 2.9375 0 Z M 1.203125 0 "/></g></g></g><g fill="#446694" fill-opacity="1"><g transform="translate(283.508358, 171.156318)"><g><path d="M 1.203125 -7.4375 C 1.203125 -8.03125 1.332031 -8.554688 1.59375 -9.015625 C 1.863281 -9.472656 2.226562 -9.832031 2.6875 -10.09375 C 3.144531 -10.363281 3.671875 -10.5 4.265625 -10.5 L 18.90625 -10.5 L 18.90625 -8.765625 L 4.265625 -8.765625 C 3.890625 -8.765625 3.570312 -8.640625 3.3125 -8.390625 C 3.0625 -8.140625 2.9375 -7.820312 2.9375 -7.4375 L 2.9375 -6.125 L 18.90625 -6.125 L 18.90625 -4.375 L 2.9375 -4.375 L 2.9375 0 L 1.203125 0 Z M 1.203125 -7.4375 "/></g></g></g><g fill="#446694" fill-opacity="1"><g transform="translate(303.308335, 171.156318)"><g><path d="M 9.78125 0 L 9.78125 -8.765625 L 1.203125 -8.765625 L 1.203125 -10.5 L 20.09375 -10.5 L 20.09375 -8.765625 L 11.515625 -8.765625 L 11.515625 0 Z M 9.78125 0 "/></g></g></g></svg>